<?xml version="1.0" encoding="utf-8"?>
<!-- Generator: Adobe Illustrator 19.0.0, SVG Export Plug-In . SVG Version: 6.00 Build 0)  -->
<svg version="1.1" id="Layer_1" xmlns="http://www.w3.org/2000/svg" xmlns:xlink="http://www.w3.org/1999/xlink" x="0px" y="0px"
	 viewBox="-437 310.3 148.7 148.7" style="enable-background:new -437 310.3 148.7 148.7;" xml:space="preserve">
<style type="text/css">
	.st0{fill:none;stroke:#D1D1D9;stroke-width:0.5;stroke-miterlimit:10;}
	.st1{fill:none;stroke:#DFE2E7;stroke-width:0.4;stroke-miterlimit:10;}
	.st2{fill:none;stroke:#E3E4E9;stroke-width:0.25;stroke-miterlimit:10;}
	.st3{fill:#181F2C;}
	.st4{fill:#FE8114;}
	.st5{fill:#4786FF;}
	.st6{fill:#EE2727;}
	.st7{fill:#2079E2;}
	.st8{fill:#00BEFF;}
	.st9{fill:#001888;}
	.st10{opacity:0.25;fill:#FFFFFF;enable-background:new    ;}
	.st11{fill:#99E9FF;}
</style>
<g id="Calque_2">
	<g id="Calque_1-2">
		<circle class="st0" cx="-362.6" cy="384.6" r="42.8"/>
		<circle class="st1" cx="-362.6" cy="384.6" r="58.7"/>
		<circle class="st2" cx="-362.6" cy="384.6" r="74.2"/>
		<circle class="st3" cx="-402" cy="368.3" r="2"/>
		<circle class="st4" cx="-419.3" cy="400.4" r="2"/>
		<circle class="st5" cx="-426.2" cy="347.1" r="2"/>
		<circle class="st6" cx="-388" cy="419.4" r="2"/>
		<circle class="st3" cx="-417.6" cy="434.8" r="2"/>
		<circle class="st4" cx="-392" cy="334.7" r="2"/>
		<circle class="st5" cx="-371.5" cy="443.2" r="2"/>
		<circle class="st3" cx="-314.1" cy="328.9" r="2"/>
		<circle class="st5" cx="-342.2" cy="330" r="2"/>
		<circle class="st7" cx="-342.2" cy="456.4" r="2"/>
	</g>
</g>
<g>
	<circle class="st8" cx="-426.2" cy="347.1" r="4.8"/>
	<circle class="st9" cx="-426.2" cy="347.1" r="4.4"/>
	<path class="st10" d="M-422.1,347.1c0,2.2-8.1,2.2-8.1,0s1.8-4.1,4.1-4.1C-424,343-422.1,344.8-422.1,347.1z"/>
	<polygon class="st11" points="-424.3,348.3 -424.3,349.5 -425.7,349.5 -425.7,350.4 -426.2,350.4 -426.8,350.4 -426.8,349.5 
		-428.1,349.5 -428.1,348.7 -426.1,345.9 -428,345.9 -428,344.8 -426.8,344.8 -426.8,343.9 -425.7,343.9 -425.7,344.8 -424.4,344.8 
		-424.4,345.6 -426.4,348.3 	"/>
</g>
<g>
	<circle class="st8" cx="-418.8" cy="399.9" r="5.6"/>
	<circle class="st9" cx="-418.8" cy="399.9" r="5.1"/>
	<path class="st10" d="M-414.1,399.9c0,2.6-9.5,2.6-9.5,0s2.1-4.8,4.8-4.8C-416.2,395.1-414.1,397.3-414.1,399.9z"/>
</g>
<g>
	<circle class="st8" cx="-371.4" cy="441.9" r="5.6"/>
	<circle class="st9" cx="-371.4" cy="441.9" r="5.1"/>
	<path class="st10" d="M-366.7,441.9c0,2.6-9.5,2.6-9.5,0s2.1-4.8,4.8-4.8C-368.8,437.2-366.7,439.3-366.7,441.9z"/>
</g>
<g>
	<circle class="st8" cx="-401.8" cy="368.3" r="5.6"/>
	<circle class="st9" cx="-401.8" cy="368.3" r="5.1"/>
	<path class="st10" d="M-397,368.3c0,2.6-9.5,2.6-9.5,0s2.1-4.8,4.8-4.8C-399.1,363.6-397,365.7-397,368.3z"/>
</g>
<g>
	<circle class="st8" cx="-342.2" cy="330" r="5.6"/>
	<circle class="st9" cx="-342.2" cy="330" r="5.1"/>
	<path class="st10" d="M-337.4,330c0,2.6-9.5,2.6-9.5,0s2.1-4.8,4.8-4.8C-339.5,325.2-337.4,327.3-337.4,330z"/>
</g>
<g>
	<circle class="st8" cx="-384.6" cy="313.7" r="3.1"/>
	<circle class="st9" cx="-384.6" cy="313.7" r="2.8"/>
	<path class="st10" d="M-382,313.7c0,1.4-5.2,1.4-5.2,0s1.2-2.6,2.6-2.6C-383.1,311.1-382,312.3-382,313.7z"/>
</g>
<g>
	<circle class="st8" cx="-313.7" cy="328.7" r="3.1"/>
	<circle class="st9" cx="-313.7" cy="328.7" r="2.8"/>
	<path class="st10" d="M-311.1,328.7c0,1.4-5.2,1.4-5.2,0s1.2-2.6,2.6-2.6C-312.3,326.1-311.1,327.3-311.1,328.7z"/>
</g>
<g>
	<circle class="st8" cx="-388" cy="419.4" r="4.7"/>
	<circle class="st9" cx="-388" cy="419.4" r="4.3"/>
	<path class="st10" d="M-384,419.4c0,2.2-8.1,2.2-8.1,0s1.8-4,4-4C-385.7,415.5-384,417.3-384,419.4z"/>
</g>
<g>
	<g>
		<circle class="st8" cx="-393.4" cy="334.8" r="4.5"/>
		<circle class="st9" cx="-393.4" cy="334.8" r="4.1"/>
		<path class="st10" d="M-389.7,334.8c0,2-7.4,2-7.4,0s1.7-3.7,3.7-3.7C-391.4,331.1-389.7,332.7-389.7,334.8z"/>
	</g>
	<path class="st11" d="M-392.2,333.6h-1.7l-0.1,0.3h1.9c0.1,0,0.2,0,0.2,0.1c0.1,0.1,0.1,0.2,0,0.3l-0.5,1.2c0,0.1-0.2,0.2-0.3,0.2
		h-2.1l-0.1,0.3h2.2c0.2,0,0.4-0.1,0.5-0.4l0.5-1.2c0.1-0.2,0.1-0.4,0-0.6C-391.8,333.7-392,333.6-392.2,333.6z"/>
	<polygon class="st11" points="-395.1,334.7 -395.2,334.9 -394.1,334.9 -394,334.7 	"/>
	<path class="st11" d="M-392.9,332.2c-0.2,0-0.4-0.1-0.5-0.1l0,0l0,0c-1.5,0-2.6,1.2-2.6,2.6c0,1.5,1.2,2.6,2.6,2.7l0,0l0,0l0,0
		c0.2,0,0.4,0,0.6-0.1c0,0,0,0,0.1,0c1.2-0.3,2-1.4,2-2.6S-391.7,332.5-392.9,332.2z M-395.6,335.2v-0.1l0.3-0.6
		c0-0.1,0.1-0.1,0.1-0.1h1.4c0.1,0,0.1,0,0.1,0.1v0.1l-0.3,0.6c0,0.1-0.1,0.1-0.1,0.1h-1.4C-395.5,335.2-395.6,335.2-395.6,335.2z
		 M-391.9,335.7c-0.1,0.3-0.4,0.5-0.8,0.5h-2.5c-0.1,0-0.1,0-0.1-0.1V336l0.3-0.6c0-0.1,0.1-0.1,0.1-0.1h2.2l0.5-1.2h-1.5h-0.6
		c-0.1,0-0.1,0-0.1-0.1v-0.1l0.3-0.6c0-0.1,0.1-0.1,0.1-0.1h1.8c0.3,0,0.6,0.1,0.7,0.4c0.2,0.2,0.2,0.6,0.1,0.8L-391.9,335.7z"/>
</g>
<g>
	<circle class="st8" cx="-417.3" cy="434.8" r="4.3"/>
	<circle class="st9" cx="-417.3" cy="434.8" r="3.9"/>
	<path class="st10" d="M-413.6,434.8c0,2-7.2,2-7.2,0s1.6-3.6,3.6-3.6C-415.3,431.2-413.6,432.8-413.6,434.8z"/>
</g>
<polygon class="st11" points="-417.4,435.3 -416.4,434.9 -416.7,434.2 -417.2,434.3 -416.9,432.9 -417.7,432.7 -418.1,434.7 
	-419.2,435.1 -418.9,435.9 -418.3,435.6 -418.5,436.9 -415.4,436.9 -415.4,436.1 -417.5,436.1 "/>
<g>
	<g>
		<path class="st11" d="M-418.7,397.1c0.7,0,1.2,0.1,1.6,0.4s0.6,0.6,0.6,1.2c0,0.3-0.1,0.5-0.2,0.7s-0.3,0.4-0.6,0.5
			c0.3,0.1,0.6,0.2,0.8,0.5c0.2,0.2,0.3,0.5,0.3,0.8c0,0.5-0.2,0.9-0.5,1.2c-0.4,0.3-0.9,0.4-1.5,0.4h-2.8v-0.7l0.6-0.1v-4l-0.6-0.1
			v-0.7h0.6L-418.7,397.1L-418.7,397.1z M-419.5,399.4h0.8c0.3,0,0.5-0.1,0.7-0.2s0.2-0.3,0.2-0.5c0-0.3-0.1-0.5-0.2-0.6
			c-0.2-0.1-0.4-0.2-0.7-0.2h-0.8V399.4z M-419.5,400.2v1.6h1c0.3,0,0.5-0.1,0.7-0.2s0.2-0.3,0.2-0.6c0-0.3-0.1-0.5-0.2-0.6
			s-0.3-0.2-0.6-0.2L-419.5,400.2L-419.5,400.2z"/>
	</g>
	<rect x="-419.8" y="396.6" class="st11" width="0.6" height="0.6"/>
	<rect x="-419.1" y="396.4" class="st11" width="0.6" height="1"/>
	<rect x="-419.8" y="402.7" class="st11" width="0.6" height="0.6"/>
	<rect x="-419.1" y="402.4" class="st11" width="0.6" height="1"/>
</g>
<g>
	<path class="st11" d="M-401,365.1c-0.2,0-0.5-0.1-0.7-0.1l0,0l0,0c-2,0-3.5,1.5-3.5,3.4c0,1.9,1.6,3.3,3.5,3.4l0,0l0,0l0,0
		c0.3,0,0.5,0,0.8-0.1h0.1c1.6-0.4,2.7-1.8,2.7-3.3C-398.2,366.8-399.4,365.5-401,365.1z M-400.2,370.7c-0.7,0-1.2-0.5-1.2-1.1v-0.1
		l-0.4-0.4l-0.4,0.4v0.1c0,0.5-0.3,0.9-0.8,1c-0.5,0.2-1,0-1.3-0.5c-0.3-0.4-0.3-0.9,0.1-1.3s0.9-0.5,1.4-0.3l0.5-0.5v-0.3
		c-0.5-0.3-0.7-0.7-0.6-1.2c0.1-0.5,0.6-0.8,1.1-0.8s1,0.4,1.1,0.8c0.1,0.5-0.1,1-0.6,1.2v0.3l0.5,0.5c0.4-0.2,1-0.1,1.3,0.3
		c0.3,0.3,0.4,0.8,0.3,1.2C-399.3,370.4-399.7,370.7-400.2,370.7z"/>
	<path class="st11" d="M-400.5,369.1l-0.9-0.8l-0.1-0.1l0-0.9l0,0l0,0c0,0,0.4-0.2,0.4-0.5c0-0.4-0.2-0.5-0.6-0.5s-0.5,0.2-0.6,0.4
		c-0.1,0.3,0.1,0.5,0.3,0.6l0,0.5l0,0l0,0l0,0l0,0l0,0v0.5l-0.1,0.1l-1,0.8c0,0-0.3-0.2-0.6,0c-0.3,0.2-0.4,0.4-0.2,0.7
		s0.6,0.4,0.8,0.2c0.3-0.2,0.2-0.5,0.2-0.6l0.9-0.8c0.1-0.1,0.1-0.1,0.2,0l0.9,0.7c0,0-0.2,0.3,0.1,0.5c0.2,0.3,0.6,0.3,0.9,0.1
		s0.3-0.6,0-0.9C-400,368.9-400.5,369-400.5,369.1z"/>
</g>
<g>
	<path class="st11" d="M-313.3,326.8c-0.1,0-0.3,0-0.4,0l0,0l0,0c-1.1,0-2.1,0.9-2.1,2.1c0,1.1,0.9,2.1,2.1,2.1l0,0l0,0l0,0
		c0.2,0,0.3,0,0.4,0c0,0,0.1,0,0.2,0c0.9-0.2,1.5-1.1,1.5-2.1C-311.6,327.7-312.3,327-313.3,326.8z M-312.8,330.1
		c-0.4,0-0.7-0.3-0.7-0.7v-0.1l-0.2-0.2l-0.2,0.2v0.1c0,0.3-0.2,0.6-0.5,0.7s-0.6,0-0.8-0.3c-0.2-0.3-0.2-0.6,0-0.8
		c0.2-0.2,0.5-0.3,0.8-0.2l0.3-0.3v-0.2c-0.3-0.2-0.4-0.5-0.3-0.8s0.4-0.5,0.7-0.5c0.3,0,0.6,0.2,0.7,0.5s-0.1,0.6-0.3,0.8v0.2
		l0.3,0.3c0.3-0.1,0.5-0.1,0.7,0.1c0.2,0.2,0.3,0.5,0.2,0.8C-312.3,330-312.5,330.1-312.8,330.1z"/>
</g>
<path class="st11" d="M-373.9,442.2l2.5,3.6l2.5-3.6l-2.5-4.1L-373.9,442.2z M-371.4,444.5l-1-1.5l1,0.5l1-0.5L-371.4,444.5z
	 M-371.4,442.7l-1.5-0.7l1.5-2.6l1.5,2.6L-371.4,442.7z"/>
<g>
	<path class="st11" d="M-390.1,417.7c0-0.1,0-0.1,0.1-0.1s0.1,0,0.1,0l1.8,2.2l1.8-2.2c0,0,0.1-0.1,0.1,0s0.1,0.1,0.1,0.1v2.9h0.9
		c0.5-1.3,0-2.7-1-3.6c-1.2-0.8-2.6-0.8-3.7,0s-1.5,2.3-1,3.6h0.9v-2.9H-390.1z"/>
	<path class="st11" d="M-386.3,420.7v-2.6l-1.5,1.9h-0.1h-0.1l-1.5-1.9v2.6c0,0.1-0.1,0.1-0.1,0.1h-0.9c0,0.1,0.1,0.3,0.3,0.4h1.2
		v-1.7c0-0.1,0-0.1,0.1-0.1s0.1,0,0.1,0l1,1.3l1-1.3c0,0,0.1-0.1,0.1,0c0.1,0,0.1,0.1,0.1,0.1v1.7h1.2c0.1-0.1,0.1-0.3,0.3-0.4h-0.9
		C-386.3,420.9-386.3,420.9-386.3,420.7z"/>
	<path class="st11" d="M-387,421.4V420l-0.9,1.2h-0.1h-0.1l-0.9-1.2v1.4c0,0.1-0.1,0.1-0.1,0.1h-1.2c0.6,0.6,1.4,1,2.3,1
		c0.9,0,1.7-0.4,2.3-1h-1.2C-386.9,421.6-387,421.5-387,421.4z"/>
</g>
<g>
	<circle class="st7" cx="-404" cy="395.5" r="1.6"/>
</g>
<g>
	<g>
		<path class="st11" d="M-342.1,327.2c0.7,0,1.2,0.1,1.6,0.4s0.6,0.6,0.6,1.2c0,0.3-0.1,0.5-0.2,0.7s-0.3,0.4-0.6,0.5
			c0.3,0.1,0.6,0.2,0.8,0.5c0.2,0.2,0.3,0.5,0.3,0.8c0,0.5-0.2,0.9-0.5,1.2c-0.4,0.3-0.9,0.4-1.5,0.4h-2.8v-0.7l0.6-0.1v-4l-0.6-0.1
			v-0.7h0.6L-342.1,327.2L-342.1,327.2z M-342.8,329.5h0.8c0.3,0,0.5-0.1,0.7-0.2s0.2-0.3,0.2-0.5c0-0.3-0.1-0.5-0.2-0.6
			c-0.2-0.1-0.4-0.2-0.7-0.2h-0.8V329.5z M-342.8,330.3v1.6h1c0.3,0,0.5-0.1,0.7-0.2s0.2-0.3,0.2-0.6c0-0.3-0.1-0.5-0.2-0.6
			s-0.3-0.2-0.6-0.2L-342.8,330.3L-342.8,330.3z"/>
	</g>
	<rect x="-343.1" y="326.5" class="st11" width="0.6" height="0.6"/>
	<rect x="-342.4" y="326.5" class="st11" width="0.6" height="1"/>
	<rect x="-343.1" y="332.8" class="st11" width="0.6" height="0.6"/>
	<rect x="-342.4" y="332.5" class="st11" width="0.6" height="1"/>
</g>
<polygon class="st11" points="-384.7,314.1 -383.9,313.8 -384.1,313.2 -384.5,313.3 -384.3,312.2 -384.9,312.1 -385.3,313.6 
	-386.1,314 -385.9,314.6 -385.4,314.4 -385.6,315.4 -383,315.4 -383,314.8 -384.8,314.8 "/>
<g>
	<circle class="st7" cx="-404.5" cy="425.8" r="1.6"/>
</g>
<g>
	<circle class="st7" cx="-392" cy="452.6" r="1.6"/>
</g>
<g>
	<circle class="st7" cx="-329.7" cy="433.8" r="1.6"/>
</g>
<g>
	<circle class="st7" cx="-432.7" cy="408" r="1.6"/>
</g>
<g>
	<circle class="st7" cx="-417.3" cy="363.6" r="1.6"/>
</g>
<g>
	<circle class="st7" cx="-409" cy="326.5" r="1.6"/>
</g>
<g>
	<circle class="st7" cx="-379.9" cy="345.1" r="1.6"/>
</g>
<g>
	<circle class="st7" cx="-369" cy="326.1" r="1.6"/>
</g>
<g>
	<circle class="st7" cx="-344.6" cy="312.1" r="1.6"/>
</g>
<g>
	<circle class="st7" cx="-315.1" cy="350.4" r="1.6"/>
</g>
<g>
	<circle class="st7" cx="-296.3" cy="351.4" r="1.6"/>
</g>
</svg>
