<svg id="Layer_1" xmlns="http://www.w3.org/2000/svg" xmlns:xlink="http://www.w3.org/1999/xlink" viewBox="0 0 135 40"><style>.st0{fill:#fff}.st2{fill:#e1e1e1}</style><path class="st0" d="M134 35.3c0 2.1-1.7 3.8-3.8 3.8H4.7c-2.1 0-3.8-1.7-3.8-3.8V4.7C.9 2.6 2.6.9 4.7.9h125.5c2.1 0 3.8 1.7 3.8 3.8v30.6z"/><path d="M130.2 40H4.7C2.1 40 0 37.9 0 35.3V4.7C0 2.1 2.1 0 4.7 0h125.5c2.6 0 4.7 2.1 4.7 4.7v30.5c0 2.7-2.1 4.8-4.7 4.8z"/><path d="M134 35.3c0 2.1-1.7 3.8-3.8 3.8H4.7c-2.1 0-3.8-1.7-3.8-3.8V4.7C.9 2.6 2.6.9 4.7.9h125.5c2.1 0 3.8 1.7 3.8 3.8v30.6z"/><linearGradient id="SVGID_1_" gradientUnits="userSpaceOnUse" x1="98.96" y1="791.097" x2="98.96" y2="755.052" gradientTransform="translate(0 -751)"><stop offset="0" stop-color="#1a1a1a" stop-opacity=".1"/><stop offset=".123" stop-color="#212121" stop-opacity=".151"/><stop offset=".308" stop-color="#353535" stop-opacity=".227"/><stop offset=".532" stop-color="#575757" stop-opacity=".318"/><stop offset=".783" stop-color="#858585" stop-opacity=".421"/><stop offset="1" stop-color="#b3b3b3" stop-opacity=".51"/></linearGradient><path d="M130.2 0H63l26.3 40h40.9c2.6 0 4.7-2.1 4.7-4.7V4.7c0-2.6-2.1-4.7-4.7-4.7z" fill="url(#SVGID_1_)"/><g><path class="st2" d="M46.9 6.7c.9 0 1.5.4 1.9.8l-.6.7c-.3-.3-.7-.5-1.3-.5-1.2 0-1.9.9-1.9 2.4s.7 2.4 2 2.4c.4 0 .7-.1.9-.3v-1.4h-1.2v-.9H49v2.9c-.4.4-1.2.8-2.1.8-1.7 0-3.1-1.2-3.1-3.4-.1-2.2 1.3-3.5 3.1-3.5zM52.2 8.4c1.3 0 2 1 2 2.3v.5H51c.1.9.7 1.4 1.4 1.4.4 0 .8-.1 1.1-.4l.5.8c-.5.3-1.1.5-1.7.5-1.4 0-2.4-.9-2.4-2.6 0-1.6 1.1-2.5 2.3-2.5zm1 2.1c0-.8-.3-1.2-1-1.2-.6 0-1.1.4-1.2 1.2h2.2zM55.3 9.4h-.7v-.9h.8l.1-1.3h1v1.3h1.2v.9h-1.2v2.3c0 .6.2.9.7.9.2 0 .4 0 .5-.1l.2.8c-.3.1-.6.2-1 .2-1.1 0-1.6-.7-1.6-1.8V9.4zM60.7 7c0-.4.3-.7.7-.7.4 0 .7.3.7.7 0 .4-.3.6-.7.6-.4 0-.7-.2-.7-.6zm.1 1.5H62v4.9h-1.1V8.5zM63.6 9.4h-.7v-.9h.8l.1-1.3h1v1.3H66v.9h-1.2v2.3c0 .6.2.9.7.9.2 0 .4 0 .5-.1l.2.8c-.3.1-.6.2-1 .2-1.1 0-1.6-.7-1.6-1.8V9.4zM71.1 8.4c1.2 0 2.3.9 2.3 2.6 0 1.6-1.1 2.6-2.3 2.6-1.2 0-2.3-.9-2.3-2.6 0-1.7 1.1-2.6 2.3-2.6zm0 4.2c.7 0 1.2-.6 1.2-1.6s-.4-1.6-1.2-1.6c-.7 0-1.1.6-1.1 1.6 0 .9.4 1.6 1.1 1.6zM74.6 8.5h.9l.1.7c.4-.4.9-.8 1.6-.8 1.1 0 1.5.7 1.5 1.9v3.1h-1.2v-2.9c0-.8-.2-1.1-.8-1.1-.4 0-.7.2-1.1.6v3.4h-1.1V8.5z"/></g><g><path class="st0" d="M101.2 30.6c-.5 0-1-.1-1.4-.3-.4-.2-.8-.5-1.1-.9h-.1c.1.5.1.9.1 1.3V34h-1.2V22.5h1l.2 1.1h.1c.3-.4.7-.8 1.1-.9.4-.2.9-.3 1.4-.3 1.1 0 1.9.4 2.5 1.1.6.7.9 1.7.9 3.1 0 1.3-.3 2.3-.9 3.1-.7.6-1.5.9-2.6.9zm-.1-7.2c-.8 0-1.4.2-1.8.7-.4.5-.6 1.2-.6 2.2v.3c0 1.1.2 1.9.6 2.4.4.5 1 .7 1.8.7.7 0 1.2-.3 1.6-.8.4-.6.6-1.3.6-2.3 0-1-.2-1.8-.6-2.3-.4-.7-.9-.9-1.6-.9zM107.4 30.5h-1.2V19.1h1.2v11.4zM114.3 30.5l-.2-1.1h-.1c-.4.5-.8.8-1.2 1-.4.2-.9.3-1.5.3-.8 0-1.4-.2-1.9-.6-.4-.4-.7-1-.7-1.7 0-1.6 1.3-2.5 3.9-2.5h1.4v-.5c0-.6-.1-1.1-.4-1.4-.3-.3-.7-.4-1.3-.4-.7 0-1.4.2-2.3.6l-.4-.9c.4-.2.8-.4 1.3-.5.5-.1.9-.2 1.4-.2 1 0 1.7.2 2.1.6.5.4.7 1.1.7 2v5.5h-.8zm-2.7-.9c.8 0 1.3-.2 1.8-.6.4-.4.6-1 .6-1.7v-.7h-1.2c-1 0-1.7.2-2.1.4-.4.3-.6.7-.6 1.2 0 .4.1.8.4 1 .3.3.6.4 1.1.4zM115.9 22.5h1.3l1.8 4.6c.4 1 .6 1.8.7 2.3h.1c.1-.3.2-.7.4-1.3.2-.6.9-2.4 2-5.5h1.3l-3.4 9.1c-.3.9-.7 1.5-1.2 1.9-.5.4-1 .6-1.7.6-.4 0-.7 0-1.1-.1v-1c.3.1.6.1.9.1.8 0 1.4-.5 1.8-1.4l.4-1.1-3.3-8.2z"/></g><g><path class="st0" d="M78.8 23.2c.4.3 1.2 1 1.2 2.3 0 1.2-.7 1.8-1.4 2.4-.2.2-.5.5-.5.8 0 .4.3.6.4.7l.6.5c.7.6 1.4 1.2 1.4 2.3 0 1.6-1.5 3.2-4.4 3.2-2.4 0-3.6-1.2-3.6-2.4 0-.6.3-1.5 1.3-2 1-.6 2.4-.7 3.2-.8-.2-.3-.5-.6-.5-1.1 0-.3.1-.5.2-.7h-.5c-1.8 0-2.8-1.3-2.8-2.6 0-.8.4-1.6 1.1-2.2 1-.8 2.1-.9 3-.9h3.4l-1.1.6h-1zm-1.2 7.5h-.4c-.2 0-1.1 0-1.8.3-.4.1-1.4.5-1.4 1.7s1.2 2 2.9 2c1.6 0 2.5-.8 2.5-1.8.1-.9-.5-1.3-1.8-2.2zm.5-3.2c.4-.4.4-.9.4-1.2 0-1.2-.7-3.1-2.1-3.1-.4 0-.9.2-1.2.6-.3.4-.4.8-.4 1.2 0 1.1.7 3 2.1 3 .5 0 .9-.2 1.2-.5zM68.3 30.4c-2.7 0-4.1-2.1-4.1-3.9 0-2.2 1.8-4.1 4.3-4.1s4 1.9 4 3.9-1.5 4.1-4.2 4.1zm2.1-1.4c.4-.5.5-1.2.5-1.9 0-1.5-.7-4.3-2.8-4.3-.6 0-1.1.2-1.5.6-.7.6-.8 1.3-.8 2 0 1.7.8 4.4 2.8 4.4.7.1 1.4-.2 1.8-.8zM59.2 30.4c-2.7 0-4.1-2.1-4.1-3.9 0-2.2 1.8-4.1 4.3-4.1s4 1.9 4 3.9c.1 2-1.4 4.1-4.2 4.1zm2.1-1.4c.4-.5.5-1.2.5-1.9 0-1.5-.7-4.3-2.8-4.3-.6 0-1.1.2-1.5.6-.7.6-.8 1.3-.8 2 0 1.7.8 4.4 2.8 4.4.8.1 1.4-.2 1.8-.8zM53.9 30.1l-2.4.6c-1 .2-1.8.3-2.8.3-4.6 0-6.4-3.4-6.4-6.1 0-3.3 2.5-6.3 6.8-6.3.9 0 1.8.1 2.6.4 1.3.4 1.8.8 2.2 1l-1.4 1.3-.6.1.4-.7c-.6-.6-1.6-1.6-3.6-1.6-2.7 0-4.6 2-4.6 5 0 3.2 2.3 6.1 5.9 6.1 1.1 0 1.6-.2 2.1-.4v-2.7l-2.5.1 1.3-.7h3.6l-.4.5c-.1.1-.1.1-.2.3v2.8z"/><path class="st0" d="M84.1 29.7c-.6-.1-.7-.2-.7-.8v-9.5-.1c.1-.6.2-.7.8-1h-2.4l-1.3.6h1.3v10.4c0 .3-.1.4-.5.9h3l.6-.4c-.2-.1-.5-.1-.8-.1zM91 29.8c-.2.1-.4.2-.5.3-.6.3-1.1.3-1.6.3s-1.4 0-2.2-.7c-1.2-.8-1.7-2.3-1.7-3.5 0-2.6 2.1-3.9 3.8-3.9.6 0 1.2.2 1.7.5.8.5 1 1.3 1.2 1.6L87.8 26l-1.3.1c.4 2.1 1.9 3.3 3.4 3.3.9 0 1.5-.3 2-.6l-.9 1zm-1.6-5c.3-.1.5-.2.5-.4 0-.7-.7-1.4-1.7-1.4-.7 0-1.9.5-1.9 2.3 0 .3 0 .6.1.9l3-1.4zM92.6 22.5v1.1h-.1v-1.1h-.4v-.1h.9v.1h-.4zM94.1 23.6v-1.1l-.3 1.1h-.1l-.3-1.1v1.1h-.1v-1.2h.2l.3 1 .3-1h.2v1.2h-.2z"/></g><g id="PLAY"><defs><path id="SVGID_2_" d="M28.7 15.2l-5.6-3.1s-10.2-5.7-10.8-6c-.7-.3-1.3-.1-1.3.6v24.4c0 .5.4.7 1 .5.5-.3 11.1-6.1 11.1-6.1l5.6-3.1s4.8-2.6 5.4-3c.6-.4.6-.8 0-1.1-.5-.3-5.4-3.1-5.4-3.1z"/></defs><clipPath id="SVGID_3_"><use xlink:href="#SVGID_2_" overflow="visible"/></clipPath><linearGradient id="SVGID_4_" gradientUnits="userSpaceOnUse" x1="17.99" y1="5.557" x2="17.99" y2="32.024"><stop offset="0" stop-color="#207cb0"/><stop offset=".376" stop-color="#3cb2bf"/><stop offset=".796" stop-color="#58e9ce"/><stop offset="1" stop-color="#63ffd4"/></linearGradient><path clip-path="url(#SVGID_3_)" fill="url(#SVGID_4_)" d="M11 5.6V32l13.9-13.2z"/><linearGradient id="SVGID_5_" gradientUnits="userSpaceOnUse" x1="11.033" y1="12.125" x2="28.684" y2="12.125"><stop offset="0" stop-color="#4bc3ae"/><stop offset="1" stop-color="#dee999"/></linearGradient><path clip-path="url(#SVGID_3_)" fill="url(#SVGID_5_)" d="M28.7 15.2l-5.6-3.1L11 5.5v.1l13.9 13.2z"/><linearGradient id="SVGID_6_" gradientUnits="userSpaceOnUse" x1="19.858" y1="18.79" x2="19.858" y2="32.119"><stop offset="0" stop-color="#ec403d"/><stop offset=".384" stop-color="#c93b75"/><stop offset=".799" stop-color="#a636ac"/><stop offset="1" stop-color="#9934c2"/></linearGradient><path clip-path="url(#SVGID_3_)" fill="url(#SVGID_6_)" d="M11 32v.1l12.1-6.6 5.6-3.2-3.8-3.5z"/><linearGradient id="SVGID_7_" gradientUnits="userSpaceOnUse" x1="30.025" y1="15.236" x2="30.025" y2="22.345"><stop offset="0" stop-color="#f87"/><stop offset=".612" stop-color="#ffb175"/><stop offset="1" stop-color="#ffc774"/></linearGradient><path clip-path="url(#SVGID_3_)" fill="url(#SVGID_7_)" d="M28.7 15.2l-3.8 3.6 3.8 3.5 6.4-3.5z"/></g></svg>