<svg version="1" xmlns="http://www.w3.org/2000/svg" width="500" height="500" viewBox="0 0 375.000000 375.000000"><path d="M172.9.4c-.2.2-3.3.6-6.9 1-3.6.3-8.1.9-10 1.2-6.2 1-26.3 6.3-27.1 7.1-.5.5 2.2 6.2 5.9 12.8 3.7 6.6 7.3 13.2 8 14.6 1.3 2.5 1.4 2.6 6.5 1.2 19.8-5.1 45.5-6.2 64.2-2.7 31.7 5.9 62.4 22.3 82.8 44.1 9 9.6 10.9 12 17.2 21.4 13.6 20.1 22.9 44.7 25.1 66.1l.6 5.8H316l-.1-2.5c-.1-1.4-.2-2.8-.3-3.3-.1-.4-.6-2.9-1-5.7-4.5-27.9-21.3-55.6-44.4-73-6.9-5.1-24.5-15.5-26.4-15.5-.2 0-.2 6.6.1 14.7.2 8.2.5 35 .8 59.6.3 38.3.2 45.7-1.2 51-6 23.9-19.8 40.3-37.7 44.7-7.2 1.8-20.2 2.3-27.8 1-19.2-3.2-32.8-16.4-41.1-40-2.3-6.4-2.3-7.4-2.7-52.5l-.3-46.1 3.8-1.6c2.1-.9 4.8-1.9 6.1-2.3l2.2-.6.1 44.8c.2 49.4.1 47.3 1.9 52.8 3.6 11.1 11.7 20.7 21.5 25.6 8 3.9 10.4 4.4 21 4.3 7.8-.1 9.9-.5 15.7-3.2 27.6-12.6 34.3-48.3 13.1-69.5-10.5-10.5-27.7-15.3-40.8-11.3-2.7.9-5.3 1.6-5.7 1.6-.5 0-.8-18.5-.8-41V64l-2.2.4c-1.3.3-6.8 1.2-12.3 2.2-5.5.9-13.6 2.9-18 4.5-7.5 2.8-8.1 2.8-9.3 1.2-.7-.9-6.9-11.9-13.8-24.3s-13.2-23.4-13.9-24.4c-1.5-1.9-1.6-1.9-5.7.4-21.7 11.9-44.2 32.2-59.5 53.5-18.1 25.2-30.1 56-34 87.7-1 7.7-1 36.1-.1 44.3 3.6 31.8 16.6 64.1 36.7 91.4C45.1 308.1 65.6 330 67 330c.6 0 15-29.6 15-30.9-.1-.3-3.2-3.9-7-8-13.8-14.6-26-35.9-32.6-56.6-5.5-17.5-7.3-30.1-6.9-49.5.2-9.1.7-18.1 1-20 .3-1.9.8-4.4 1-5.5 3-18.3 12.9-42.4 23.8-58.5C69 89.7 90.1 67 92.9 67c.5 0 3.7 5 7.1 11.2l6.2 11.2-6.9 6.6c-21.6 20.8-33.9 46.1-37 75.9-1.2 11.7-.7 29.5 1.2 39.1.2 1.4.7 3.8 1.1 5.5.3 1.6 1.9 6.9 3.4 11.6 8.5 25.3 22.4 45.1 43.2 61.6l5.7 4.5-4.3 8.7c-6.8 13.5-18.2 37.2-19.9 41.3l-1.6 3.8 8.6 4.6c15.9 8.7 37.6 16.5 53.9 19.3 3.2.5 7.5 1.3 9.4 1.6 1.9.4 11.6.8 21.5 1 16.3.3 26.4-.5 39-3 59.1-11.6 110-52.7 133.6-108 4.5-10.5 11-30.5 10.3-31.7-.6-.9-31.6-.9-32.9 0-.6.4-2.5 4.7-4.4 9.7-13.1 35.6-41.1 66.7-75.6 83.9-21.6 10.9-41.3 15.7-65.5 16-17.4.3-32-2.1-50.2-8l-7.7-2.5 2.3-4.7c1.3-2.6 3.8-7.7 5.6-11.5 1.8-3.7 3.4-6.7 3.5-6.7.1 0 3.1.9 6.6 2.1 14.2 4.5 23.3 6 38.4 6.3 34.3.7 66.8-12.6 91.6-37.3 4.7-4.7 10.9-12 13.8-16.1 10.7-15.2 19.4-36.1 22.1-53.2l1.3-7.7h27.2c15.1.1 27.8-.2 28.4-.6 1.2-.7.9-31.2-.4-39-3.7-22.9-9-39.8-17.9-58-10.7-21.6-22.7-37.9-40.2-54.5C287.1 25.1 254.9 9.1 218 2.5 209.7 1 174.1-.6 172.9.4zM108 163.1c.1 34.6.7 40.2 6 53.9 10.3 26.4 25.5 42.1 48.6 49.9 9 3 13.7 3.6 28.4 3.5 10.9 0 15.1-.5 21.5-2.3 26.2-7.4 44.3-25.9 53.8-55.2 1.4-4.1 2.8-9.4 3.3-11.9.4-2.5.9-4.8 1-5.3.1-.4.2-15.2.3-33 .2-35.9-.1-34.9 6.5-21.7 7.9 15.5 10.7 29 10.2 49-.2 9.6-.9 15.8-2.4 21.5-8.7 32.8-30.6 57.7-61.4 69.5-12 4.6-22.3 6.3-36.8 6.2-25.8-.3-50.1-11.1-68.3-30.2-17.7-18.4-27.4-41.3-28.1-66-.6-19.2 4.8-41.1 14-56.8 1.4-2.4 2.8-4.2 3-4 .2.2.4 15 .4 32.9zm88.4 7.9c8.3 4 11.7 14 7.7 22.2-4.1 8.5-14 12-22.3 7.9-6.2-3-9.3-8-9.3-15.1 0-6.9 3.1-12 9-15 5.1-2.5 9.8-2.5 14.9 0z"/></svg>